<svg width="1720" height="445" viewBox="0 0 1720 445" fill="none" xmlns="http://www.w3.org/2000/svg">
<path d="M686.5 368.6V148H758.3V167.3H758.9C772.6 151.5 794.8 143.5 825.7 143.5C851.8 143.5 873.2 150.4 889.8 164.3C908.6 179.7 918 201.7 918 230.2C918 258.7 908.6 280.7 889.7 296.1C873 310 851.6 316.9 825.3 316.9C794.9 316.9 773.3 309.3 760.6 294V368.5L686.5 368.6ZM760.7 230.2C760.7 254.7 774.4 267 801.7 267C814.6 267 824.7 263.4 832 256.3C838.7 249.8 842.1 241.1 842.1 230.2C842.1 205.7 828.5 193.4 801.4 193.4C774.3 193.4 760.7 205.7 760.7 230.2Z" fill="white"/>
<path d="M1080.8 261.7H1159.8C1154.1 279.1 1141.7 292.6 1122.7 302.1C1102.9 312 1076.7 316.9 1044 316.9C962.2 316.9 921.4 287.6 921.4 229C921.4 201.1 931.5 179.5 951.8 164.3C972.1 149.1 1000.5 141.4 1037.1 141.4C1120.4 141.4 1161.6 176.4 1160.6 246.5H997.3C997.3 253.6 1000.7 260 1007.4 265.5C1015.7 272.4 1027.3 275.9 1042.1 275.9C1060.4 275.9 1073.3 271.2 1080.8 261.7ZM997.4 209.1H1085.9C1085.1 200.4 1080.7 193.5 1072.8 188.3C1064.9 183.2 1054.6 180.6 1041.9 180.6C1015.8 180.6 1000.9 190.1 997.4 209.1Z" fill="white"/>
<path d="M1324.5 310.4V293.2H1323.9C1310.2 309 1288 317 1257.1 317C1231 317 1209.6 310.1 1193 296.2C1174.2 280.8 1164.8 258.8 1164.8 230.3C1164.8 201.8 1174.2 179.8 1193.1 164.4C1209.8 150.5 1231.2 143.6 1257.5 143.6C1287.9 143.6 1309.4 151.2 1322.2 166.5V91.1001H1396.4V310.5L1324.5 310.4ZM1322.2 230.2C1322.2 205.7 1308.5 193.4 1281.2 193.4C1268.3 193.4 1258.4 196.8 1251.4 203.6C1244.4 210.4 1240.9 219.3 1240.9 230.2C1240.9 254.7 1254.5 267 1281.6 267C1308.6 267 1322.2 254.8 1322.2 230.2Z" fill="white"/>
<path d="M1560.6 310.4V293.2H1560C1546.3 309 1524.1 317 1493.2 317C1467.1 317 1445.7 310.1 1429.1 296.2C1410.3 280.8 1400.9 258.8 1400.9 230.3C1400.9 201.8 1410.3 179.8 1429.2 164.4C1445.9 150.5 1467.3 143.6 1493.6 143.6C1524 143.6 1545.5 151.2 1558.3 166.5V91.1001H1632.5V310.5L1560.6 310.4ZM1558.2 230.2C1558.2 205.7 1544.5 193.4 1517.2 193.4C1504.3 193.4 1494.4 196.8 1487.4 203.6C1480.4 210.4 1476.9 219.3 1476.9 230.2C1476.9 254.7 1490.5 267 1517.6 267C1544.6 267 1558.2 254.8 1558.2 230.2Z" fill="white"/>
<path d="M1645.5 310.4V91H1719.7V310.4H1645.5Z" fill="white"/>
<path d="M0 140L106 201.7L329.6 398.2L536.9 280V313.3L310.3 444.4L0 267.6V140Z" fill="white"/>
<path d="M75.7 115.2C62.3 115.2 51.5 108.6 51.5 100.4V150.8C51.5 159 62.3 165.6 75.7 165.6C89.1 165.6 99.9 159 99.9 150.8V100.4C99.9 108.6 89.1 115.2 75.7 115.2Z" fill="white"/>
<path d="M132.3 81.9997C118.9 81.9997 108.1 75.3997 108.1 67.1997V117.6C108.1 125.8 118.9 132.4 132.3 132.4C145.7 132.4 156.5 125.8 156.5 117.6V67.1997C156.5 75.3997 145.7 81.9997 132.3 81.9997Z" fill="white"/>
<path d="M188.9 48.8C175.5 48.8 164.7 42.2 164.7 34V84.3C164.7 92.5 175.5 99.1 188.9 99.1C202.3 99.1 213.1 92.5 213.1 84.3V34C213.1 42.2 202.3 48.8 188.9 48.8Z" fill="white"/>
<path d="M245.5 15.6999C232.1 15.6999 221.3 9.0999 221.3 0.899902V51.2999C221.3 59.4999 232.1 66.0999 245.5 66.0999C258.9 66.0999 269.7 59.4999 269.7 51.2999V0.899902C269.7 8.9999 258.9 15.6999 245.5 15.6999Z" fill="white"/>
<path d="M339.8 295L113.2 165V182.5L336.9 381.6L566.4 249.9V164L339.8 295Z" fill="white"/>
<path d="M481.8 148.6L474.6 144.5L309.1 240.3L315.9 244.5L481.8 148.6Z" fill="white"/>
<path d="M447.7 129L440.5 124.8L275.1 220.6L281.9 224.7L447.7 129Z" fill="white"/>
<path d="M413.8 109.5L406.6 105.3L241.2 201.1L247.9 205.3L413.8 109.5Z" fill="white"/>
<path d="M379.7 89.7997L372.5 85.6997L207.1 181.5L213.9 185.6L379.7 89.7997Z" fill="white"/>
</svg>
