<svg width="1771" height="444" viewBox="0 0 1771 444" fill="none" xmlns="http://www.w3.org/2000/svg">
<path d="M0 139.15L105.97 200.87L329.63 397.35L536.89 279.17V312.45L310.31 443.6L0 266.78V139.15Z" fill="black"/>
<path d="M75.7 114.36C62.33 114.36 51.5 107.72 51.5 99.53V149.88C51.5 158.07 62.33 164.71 75.7 164.71C89.07 164.71 99.9 158.07 99.9 149.88V99.53C99.9 107.72 89.06 114.36 75.7 114.36Z" fill="black"/>
<path d="M132.29 81.1901C118.92 81.1901 108.09 74.5501 108.09 66.3601V116.71C108.09 124.9 118.92 131.54 132.29 131.54C145.66 131.54 156.49 124.9 156.49 116.71V66.3501C156.49 74.5401 145.66 81.1901 132.29 81.1901Z" fill="black"/>
<path d="M188.89 48.0099C175.52 48.0099 164.69 41.3699 164.69 33.1799V83.5299C164.69 91.7199 175.52 98.3599 188.89 98.3599C202.26 98.3599 213.09 91.7199 213.09 83.5299V33.1799C213.09 41.3699 202.26 48.0099 188.89 48.0099Z" fill="black"/>
<path d="M245.49 14.83C232.12 14.83 221.29 8.19 221.29 0V50.35C221.29 58.54 232.12 65.18 245.49 65.18C258.86 65.18 269.69 58.54 269.69 50.35V0C269.69 8.19 258.85 14.83 245.49 14.83Z" fill="black"/>
<path d="M339.77 294.12L113.18 164.14V181.7L336.84 380.8L566.38 249.11V163.11L339.77 294.12Z" fill="black"/>
<path d="M686.5 367.72V147.14H758.35V166.44H758.94C772.6 150.61 794.86 142.69 825.74 142.69C851.87 142.69 873.24 149.62 889.87 163.47C908.67 178.91 918.07 200.88 918.07 229.38C918.07 257.88 908.63 279.85 889.76 295.29C873.07 309.15 851.62 316.07 825.39 316.07C794.99 316.07 773.43 308.45 760.72 293.21V367.73H686.5V367.72ZM760.72 229.37C760.72 253.91 774.38 266.18 801.69 266.18C814.55 266.18 824.65 262.62 831.97 255.49C838.7 248.96 842.06 240.25 842.06 229.36C842.06 204.82 828.5 192.55 801.39 192.55C774.28 192.56 760.72 204.84 760.72 229.37Z" fill="black"/>
<path d="M1080.76 260.84H1159.73C1153.99 278.26 1141.62 291.72 1122.62 301.22C1102.83 311.11 1076.6 316.06 1043.95 316.06C962.2 316.06 921.34 286.77 921.34 228.18C921.34 200.27 931.48 178.7 951.77 163.46C972.06 148.22 1000.51 140.6 1037.12 140.6C1120.44 140.6 1161.61 175.63 1160.62 245.7H997.33C997.33 252.82 1000.69 259.16 1007.42 264.7C1015.73 271.63 1027.31 275.09 1042.16 275.09C1060.38 275.1 1073.24 270.34 1080.76 260.84ZM997.34 208.3H1085.81C1085.02 199.59 1080.66 192.67 1072.75 187.52C1064.83 182.38 1054.54 179.8 1041.87 179.8C1015.75 179.79 1000.9 189.3 997.34 208.3Z" fill="black"/>
<path d="M1324.51 309.53V292.31H1323.92C1310.26 308.15 1288 316.06 1257.12 316.06C1230.99 316.06 1209.62 309.13 1192.99 295.28C1174.18 279.84 1164.79 257.87 1164.79 229.37C1164.79 200.87 1174.23 178.9 1193.1 163.46C1209.79 149.61 1231.24 142.68 1257.47 142.68C1287.86 142.68 1309.42 150.3 1322.14 165.54V90.1301H1396.36V309.53H1324.51ZM1322.13 229.37C1322.13 204.83 1308.47 192.56 1281.16 192.56C1268.29 192.56 1258.35 195.97 1251.32 202.8C1244.29 209.63 1240.78 218.49 1240.78 229.37C1240.78 253.91 1254.33 266.18 1281.45 266.18C1308.57 266.19 1322.13 253.92 1322.13 229.37Z" fill="black"/>
<path d="M1560.53 309.53V292.31H1559.94C1546.28 308.15 1524.02 316.06 1493.14 316.06C1467.01 316.06 1445.64 309.13 1429.01 295.28C1410.2 279.84 1400.81 257.87 1400.81 229.37C1400.81 200.87 1410.25 178.9 1429.12 163.46C1445.81 149.61 1467.26 142.68 1493.49 142.68C1523.88 142.68 1545.44 150.3 1558.16 165.54V90.1301H1632.38V309.53H1560.53ZM1558.15 229.37C1558.15 204.83 1544.49 192.56 1517.18 192.56C1504.31 192.56 1494.37 195.97 1487.34 202.8C1480.31 209.63 1476.8 218.49 1476.8 229.37C1476.8 253.91 1490.35 266.18 1517.47 266.18C1544.6 266.19 1558.15 253.92 1558.15 229.37Z" fill="black"/>
<path d="M1645.44 309.53V90.1301H1719.66V309.53H1645.44Z" fill="black"/>
<path d="M1751.09 310.25C1740.54 310.25 1731.96 301.67 1731.96 291.12C1731.96 280.57 1740.54 271.99 1751.09 271.99C1761.64 271.99 1770.22 280.57 1770.22 291.12C1770.22 301.67 1761.63 310.25 1751.09 310.25ZM1751.09 275.87C1742.68 275.87 1735.84 282.71 1735.84 291.12C1735.84 299.53 1742.68 306.37 1751.09 306.37C1759.5 306.37 1766.34 299.53 1766.34 291.12C1766.33 282.71 1759.49 275.87 1751.09 275.87Z" fill="black"/>
<path d="M1750.04 289.56C1751.11 289.56 1751.89 289.35 1752.35 288.94C1752.82 288.55 1753.07 287.89 1753.07 286.96C1753.07 286.05 1752.82 285.41 1752.35 285C1751.88 284.61 1751.11 284.42 1750.04 284.42H1747.86V289.57H1750.04M1747.86 293.12V300.7H1742.69V280.67H1750.58C1753.22 280.67 1755.14 281.12 1756.37 282.01C1757.61 282.88 1758.22 284.28 1758.22 286.21C1758.22 287.53 1757.91 288.62 1757.27 289.47C1756.63 290.31 1755.68 290.95 1754.38 291.33C1755.1 291.5 1755.72 291.87 1756.28 292.44C1756.84 293 1757.41 293.86 1757.97 295.02L1760.79 300.69H1755.29L1752.84 295.72C1752.35 294.73 1751.85 294.03 1751.34 293.68C1750.83 293.31 1750.16 293.12 1749.32 293.12H1747.86Z" fill="black"/>
</svg>
