<svg width="14" height="14" viewBox="0 0 14 14" fill="none" xmlns="http://www.w3.org/2000/svg">
<path fill-rule="evenodd" clip-rule="evenodd" d="M6.99966 1.74918C7.1157 1.74918 7.22698 1.79527 7.30902 1.87732C7.39107 1.95936 7.43716 2.07064 7.43716 2.18668V6.56168H11.8122C11.9282 6.56168 12.0395 6.60777 12.1215 6.68982C12.2036 6.77186 12.2497 6.88314 12.2497 6.99918C12.2497 7.11521 12.2036 7.22649 12.1215 7.30854C12.0395 7.39058 11.9282 7.43668 11.8122 7.43668H7.43716V11.8117C7.43716 11.9277 7.39107 12.039 7.30902 12.121C7.22698 12.2031 7.1157 12.2492 6.99966 12.2492C6.88363 12.2492 6.77235 12.2031 6.69031 12.121C6.60826 12.039 6.56216 11.9277 6.56216 11.8117V7.43668H2.18716C2.07113 7.43668 1.95985 7.39058 1.87781 7.30854C1.79576 7.22649 1.74966 7.11521 1.74966 6.99918C1.74966 6.88314 1.79576 6.77186 1.87781 6.68982C1.95985 6.60777 2.07113 6.56168 2.18716 6.56168H6.56216V2.18668C6.56216 2.07064 6.60826 1.95936 6.69031 1.87732C6.77235 1.79527 6.88363 1.74918 6.99966 1.74918V1.74918Z" fill="#212529"/>
</svg>
